<svg xmlns="http://www.w3.org/2000/svg" xmlns:xlink="http://www.w3.org/1999/xlink" width="118" zoomAndPan="magnify" viewBox="0 0 88.5 30.000001" height="40" preserveAspectRatio="xMidYMid meet" version="1.0"><path fill="#f4f4f4" d="M 4.089844 20.65625 C 3.050781 19.507812 2.53125 18.101562 2.53125 16.433594 C 2.53125 14.769531 3.050781 13.359375 4.089844 12.203125 C 5.132812 11.050781 6.457031 10.472656 8.066406 10.472656 C 9.535156 10.472656 10.75 10.941406 11.703125 11.878906 L 11.703125 10.804688 L 15.546875 10.804688 L 15.546875 22.046875 L 11.75 22.046875 L 11.75 20.777344 L 11.703125 20.777344 C 10.75 21.847656 9.535156 22.378906 8.066406 22.378906 C 6.457031 22.378906 5.132812 21.808594 4.089844 20.65625 Z M 7.351562 14.527344 C 6.855469 15.023438 6.609375 15.660156 6.609375 16.433594 C 6.609375 17.210938 6.84375 17.84375 7.320312 18.332031 C 7.800781 18.824219 8.433594 19.066406 9.214844 19.066406 C 9.964844 19.066406 10.582031 18.820312 11.0625 18.324219 C 11.546875 17.832031 11.789062 17.199219 11.789062 16.433594 C 11.789062 15.660156 11.539062 15.023438 11.039062 14.527344 C 10.542969 14.035156 9.933594 13.785156 9.214844 13.785156 C 8.472656 13.785156 7.851562 14.035156 7.351562 14.527344 Z M 7.351562 14.527344 " fill-opacity="1" fill-rule="nonzero"/><path fill="#f4f4f4" d="M 17.0625 3.199219 L 20.902344 3.199219 L 20.902344 22.046875 L 17.0625 22.046875 Z M 17.0625 3.199219 " fill-opacity="1" fill-rule="nonzero"/><path fill="#f4f4f4" d="M 22.785156 4.535156 C 23.234375 4.082031 23.769531 3.855469 24.390625 3.855469 C 25.015625 3.855469 25.554688 4.082031 26.003906 4.535156 C 26.453125 4.988281 26.675781 5.527344 26.675781 6.15625 C 26.675781 6.785156 26.453125 7.324219 26.003906 7.777344 C 25.554688 8.230469 25.015625 8.457031 24.390625 8.457031 C 23.769531 8.457031 23.234375 8.230469 22.785156 7.777344 C 22.34375 7.324219 22.121094 6.785156 22.121094 6.15625 C 22.121094 5.527344 22.34375 4.988281 22.785156 4.535156 Z M 22.417969 10.804688 L 22.417969 22.046875 L 26.261719 22.046875 L 26.261719 10.804688 Z M 22.417969 10.804688 " fill-opacity="1" fill-rule="nonzero"/><path fill="#f4f4f4" d="M 27.390625 24.808594 L 30.539062 23.25 C 31.109375 24.214844 32.113281 24.699219 33.550781 24.699219 C 34.210938 24.699219 34.828125 24.480469 35.398438 24.050781 C 35.972656 23.621094 36.257812 22.960938 36.257812 22.074219 L 36.257812 21.234375 C 35.578125 22 34.367188 22.378906 32.621094 22.378906 C 31.011719 22.378906 29.6875 21.808594 28.644531 20.65625 C 27.605469 19.507812 27.085938 18.101562 27.085938 16.433594 C 27.085938 14.769531 27.605469 13.359375 28.644531 12.203125 C 29.6875 11.050781 31.011719 10.472656 32.621094 10.472656 C 34.046875 10.472656 35.242188 10.917969 36.195312 11.808594 L 36.257812 11.808594 L 36.257812 10.804688 L 40.101562 10.804688 L 40.101562 22.355469 C 40.101562 24.179688 39.5 25.585938 38.300781 26.578125 C 37.101562 27.574219 35.515625 28.074219 33.550781 28.074219 C 30.367188 28.074219 28.316406 26.984375 27.390625 24.808594 Z M 31.90625 14.527344 C 31.410156 15.023438 31.164062 15.660156 31.164062 16.433594 C 31.164062 17.210938 31.402344 17.84375 31.875 18.332031 C 32.355469 18.824219 32.988281 19.066406 33.769531 19.066406 C 34.519531 19.066406 35.136719 18.820312 35.617188 18.324219 C 36.101562 17.832031 36.34375 17.199219 36.34375 16.433594 C 36.34375 15.660156 36.09375 15.023438 35.59375 14.527344 C 35.097656 14.035156 34.488281 13.785156 33.769531 13.785156 C 33.027344 13.785156 32.410156 14.035156 31.90625 14.527344 Z M 31.90625 14.527344 " fill-opacity="1" fill-rule="nonzero"/><path fill="#f4f4f4" d="M 41.617188 22.046875 L 41.617188 10.804688 L 45.457031 10.804688 L 45.457031 11.992188 L 45.503906 11.992188 C 46.5 10.976562 47.5625 10.472656 48.691406 10.472656 C 49.238281 10.472656 49.78125 10.546875 50.324219 10.695312 C 50.867188 10.84375 51.386719 11.070312 51.882812 11.375 C 52.382812 11.679688 52.792969 12.113281 53.105469 12.679688 C 53.417969 13.242188 53.574219 13.894531 53.574219 14.640625 L 53.574219 22.046875 L 49.730469 22.046875 L 49.730469 15.691406 C 49.730469 15.105469 49.546875 14.597656 49.175781 14.15625 C 48.808594 13.71875 48.332031 13.5 47.734375 13.5 C 47.15625 13.5 46.632812 13.726562 46.164062 14.179688 C 45.695312 14.636719 45.457031 15.136719 45.457031 15.691406 L 45.457031 22.046875 Z M 41.617188 22.046875 " fill-opacity="1" fill-rule="nonzero"/><path fill="#f4f4f4" d="M 66.132812 16.964844 L 58.0625 16.964844 C 58.0625 17.753906 58.316406 18.339844 58.820312 18.71875 C 59.328125 19.097656 59.875 19.289062 60.464844 19.289062 C 61.089844 19.289062 61.585938 19.207031 61.945312 19.035156 C 62.304688 18.867188 62.714844 18.535156 63.179688 18.039062 L 65.957031 19.4375 C 64.800781 21.398438 62.875 22.378906 60.183594 22.378906 C 58.507812 22.378906 57.070312 21.800781 55.871094 20.640625 C 54.671875 19.476562 54.070312 18.078125 54.070312 16.441406 C 54.070312 14.804688 54.671875 13.398438 55.871094 12.226562 C 57.070312 11.058594 58.507812 10.472656 60.183594 10.472656 C 61.953125 10.472656 63.386719 10.992188 64.496094 12.023438 C 65.601562 13.050781 66.15625 14.519531 66.15625 16.433594 C 66.15625 16.699219 66.148438 16.875 66.132812 16.964844 Z M 58.171875 14.8125 L 62.398438 14.8125 C 62.3125 14.226562 62.085938 13.78125 61.71875 13.46875 C 61.34375 13.152344 60.871094 12.996094 60.292969 12.996094 C 59.65625 12.996094 59.152344 13.164062 58.773438 13.5 C 58.398438 13.839844 58.199219 14.277344 58.171875 14.8125 Z M 58.171875 14.8125 " fill-opacity="1" fill-rule="nonzero"/><path fill="#f4f4f4" d="M 67.625 20.65625 C 66.585938 19.507812 66.066406 18.101562 66.066406 16.433594 C 66.066406 14.769531 66.585938 13.359375 67.625 12.203125 C 68.667969 11.050781 69.992188 10.472656 71.601562 10.472656 C 73.070312 10.472656 74.285156 10.941406 75.238281 11.878906 L 75.238281 3.199219 L 79.082031 3.199219 L 79.082031 22.046875 L 75.285156 22.046875 L 75.285156 20.777344 L 75.238281 20.777344 C 74.285156 21.847656 73.070312 22.378906 71.601562 22.378906 C 69.992188 22.378906 68.667969 21.808594 67.625 20.65625 Z M 70.886719 14.527344 C 70.390625 15.023438 70.144531 15.660156 70.144531 16.433594 C 70.144531 17.210938 70.382812 17.84375 70.855469 18.332031 C 71.335938 18.824219 71.96875 19.066406 72.75 19.066406 C 73.5 19.066406 74.117188 18.820312 74.597656 18.324219 C 75.082031 17.832031 75.324219 17.199219 75.324219 16.433594 C 75.324219 15.660156 75.074219 15.023438 74.574219 14.527344 C 74.078125 14.035156 73.46875 13.785156 72.75 13.785156 C 72.007812 13.785156 71.390625 14.035156 70.886719 14.527344 Z M 70.886719 14.527344 " fill-opacity="1" fill-rule="nonzero"/><path fill="#ff914d" d="M 83.070312 17.359375 C 83.761719 17.359375 84.351562 17.605469 84.839844 18.09375 C 85.324219 18.585938 85.566406 19.183594 85.566406 19.882812 C 85.566406 20.566406 85.324219 21.15625 84.839844 21.644531 C 84.351562 22.136719 83.761719 22.378906 83.070312 22.378906 C 82.390625 22.378906 81.808594 22.136719 81.324219 21.644531 C 80.839844 21.15625 80.597656 20.566406 80.597656 19.882812 C 80.597656 19.183594 80.839844 18.585938 81.324219 18.09375 C 81.808594 17.605469 82.390625 17.359375 83.070312 17.359375 Z M 83.070312 17.359375 " fill-opacity="1" fill-rule="nonzero"/></svg>